<svg width="1776" height="1776" viewBox="0 0 1776 1776" fill="none" xmlns="http://www.w3.org/2000/svg">
<rect width="1776" height="1776" fill="black"/>
<path d="M898.864 865.05H924.966V818.435H943.482V799.594H880.347V818.435H898.864V865.05Z" fill="white"/>
<path d="M962.73 865.05L976.034 825.907L989.319 865.05H1014.85L989.826 799.594H962.223L937.216 865.05H962.73Z" fill="white"/>
<path d="M1027.1 865.05H1053.2V818.435H1071.72V799.594H1008.59V818.435H1027.1V865.05Z" fill="white"/>
<path d="M1090.97 865.05L1104.27 825.907L1117.56 865.05H1143.09L1118.08 799.594H1090.46L1065.45 865.05H1090.97Z" fill="white"/>
<path d="M1341.46 911.847C1344.69 919.258 1348.95 927.277 1353.19 934.424L1370.26 963.213H1382.63V897.757H1371.58V920.598C1371.58 930.607 1371.8 939.032 1372.66 947.722L1372.43 947.783C1369.41 940.677 1365.62 933.064 1361.3 925.856L1344.4 897.757H1330.75V963.213H1341.79V939.804C1341.79 929.064 1341.63 920.415 1341.16 911.908L1341.46 911.847Z" fill="white"/>
<path d="M1282.18 944.717H1302.95L1308.87 963.213H1321.69L1300.45 897.757H1285.26L1264.27 963.213H1276.62L1282.18 944.717ZM1289.18 919.522C1290.33 915.624 1291.33 911.096 1292.28 907.259H1292.48C1293.48 911.056 1294.55 915.522 1295.79 919.562L1300.94 935.703H1284.09L1289.18 919.522Z" fill="white"/>
<path d="M1087.52 954.341C1081.44 954.341 1075.58 952.391 1071.72 950.158L1069.06 960.066C1072.63 962.259 1079.81 964.248 1086.73 964.248C1103.6 964.248 1111.53 955.112 1111.53 944.575C1111.53 935.175 1106.08 929.45 1094.72 925.125C1086 921.796 1082.21 919.42 1082.21 914.405C1082.21 910.548 1085.43 906.528 1093.02 906.528C1099.16 906.528 1103.73 908.396 1106.08 909.634L1108.94 899.991C1105.53 898.265 1100.34 896.762 1093.26 896.762C1079.08 896.762 1070.12 904.843 1070.12 915.563C1070.12 924.942 1077.02 930.749 1087.83 934.586C1096.08 937.591 1099.41 940.514 1099.41 945.448C1099.41 950.767 1095.13 954.341 1087.52 954.341Z" fill="white"/>
<path d="M915.86 906.609C921.194 906.609 925.554 907.787 928.597 909.167L931.193 899.645C928.759 898.326 923.222 896.742 915.353 896.742C895.376 896.742 880.347 909.736 880.347 931.256C880.347 951.173 892.982 964.248 913.73 964.248C921.64 964.248 927.866 962.685 930.686 961.264L928.718 951.843C925.575 953.264 920.525 954.219 915.677 954.219C901.298 954.219 892.922 945.083 892.922 930.647C892.922 914.933 902.515 906.609 915.86 906.609Z" fill="white"/>
<path d="M1249.71 963.213V907.807H1268.55V897.757H1219.09V907.807H1237.77V963.213H1249.71Z" fill="white"/>
<path d="M1488.42 897.757L1480.55 914.527C1478.32 919.278 1476.52 923.339 1474.89 927.521H1474.69C1472.91 923.095 1471.2 919.359 1468.99 914.548L1461.2 897.757H1447.53L1468.22 935.967V963.213H1480.17V935.642L1501.89 897.778H1488.42V897.757Z" fill="white"/>
<path d="M965.812 896.702C947.356 896.702 934.681 910.893 934.681 930.993C934.681 950.158 946.363 964.309 964.859 964.309H964.961C982.869 964.309 996.153 951.762 996.153 929.835C996.113 911.116 984.877 896.702 965.812 896.702ZM965.346 954.726H965.245C953.826 954.726 947.154 943.722 947.194 930.708C947.174 917.654 953.461 906.264 965.387 906.264C977.312 906.264 983.437 917.938 983.437 930.282C983.417 943.966 976.886 954.726 965.346 954.726Z" fill="white"/>
<path d="M1428.43 906.609C1433.76 906.609 1438.12 907.787 1441.17 909.167L1443.76 899.645C1441.33 898.326 1435.79 896.742 1427.92 896.742C1407.95 896.742 1392.92 909.736 1392.92 931.256C1392.92 951.173 1405.55 964.248 1426.3 964.248C1434.21 964.248 1440.44 962.705 1443.26 961.264L1441.29 951.843C1438.14 953.264 1433.09 954.219 1428.25 954.219C1413.87 954.219 1405.49 945.083 1405.49 930.647C1405.49 914.933 1415.08 906.609 1428.43 906.609Z" fill="white"/>
<path d="M1198.82 897.757H1186.88V963.213H1225.72V953.183H1198.82V897.757Z" fill="white"/>
<path d="M1173.29 935.155V897.777H1161.34V935.946C1161.34 948.778 1156.17 954.686 1147.57 954.686C1139.48 954.686 1134.17 948.737 1134.17 935.946V897.777H1122.22V935.236C1122.22 955.823 1132.06 964.329 1147.13 964.329C1162.93 964.309 1173.29 955.315 1173.29 935.155Z" fill="white"/>
<path d="M1058.23 897.757H1047.18V920.598C1047.18 930.607 1047.4 939.032 1048.26 947.722L1048.03 947.783C1045.01 940.677 1041.22 933.063 1036.9 925.856L1020 897.757H1006.35V963.213H1017.41V939.804C1017.41 929.064 1017.25 920.415 1016.78 911.929L1017.08 911.868C1020.31 919.278 1024.57 927.298 1028.81 934.444L1045.88 963.233H1058.25V897.757H1058.23Z" fill="white"/>
<path d="M1109.34 995.941H1097.4V1061.4H1109.34V995.941Z" fill="white"/>
<path d="M1015.28 1030.7V1030.43C1021.38 1028.26 1027.06 1022.58 1027.06 1014.21C1027.06 1008.65 1025.03 1004.14 1021.48 1001.18C1017.1 997.524 1009.56 995.941 1001.47 995.941C993.375 995.941 988.021 996.509 983.498 997.342V1061.4H995.261V1034.7H1001.22C1007.96 1034.86 1011.04 1037.6 1012.91 1046.07C1014.71 1054.15 1016.27 1059.51 1017.27 1061.4H1029.44C1028.14 1058.86 1026.37 1051.41 1024.32 1043.29C1022.7 1036.97 1019.98 1032.49 1015.28 1030.7ZM1002.28 1025.99H995.261V1005.46C996.458 1005.16 998.871 1004.87 1002.62 1004.87C1010.29 1004.89 1015.26 1008.2 1015.26 1015.29C1015.26 1021.75 1010.31 1025.99 1002.28 1025.99Z" fill="white"/>
<path d="M1068.11 1025.87C1065.58 1033.81 1063.2 1041.8 1061.46 1049.52H1061.26C1059.55 1041.6 1057.32 1033.95 1054.85 1025.68L1045.92 995.921H1032.9L1054.06 1061.38H1067.75L1090.34 995.921H1077.62L1068.11 1025.87Z" fill="white"/>
<path d="M1191.99 1032.34H1216.63V1022.6H1191.99V1005.77H1218.09V995.941H1180.04V1061.38H1219.53V1051.55H1191.99V1032.34Z" fill="white"/>
<path d="M1155.12 1004.77C1160.45 1004.77 1164.81 1005.95 1167.85 1007.33L1170.45 997.809C1168.02 996.489 1162.48 994.905 1154.61 994.905C1134.63 994.905 1119.61 1007.9 1119.61 1029.42C1119.61 1049.34 1132.24 1062.41 1152.99 1062.41C1160.9 1062.41 1167.12 1060.87 1169.94 1059.43L1167.98 1050.01C1164.81 1051.43 1159.78 1052.38 1154.94 1052.38C1140.56 1052.38 1132.18 1043.25 1132.18 1028.81C1132.18 1013.1 1141.77 1004.77 1155.12 1004.77Z" fill="white"/>
<path d="M906.003 1023.29C897.262 1019.96 893.489 1017.58 893.489 1012.57C893.489 1008.71 896.714 1004.69 904.279 1004.69C910.424 1004.69 914.987 1006.56 917.34 1007.8L920.2 998.154C916.792 996.428 911.6 994.926 904.522 994.926C890.346 994.926 881.381 1003.01 881.381 1013.73C881.381 1023.11 888.277 1028.91 899.087 1032.75C907.341 1035.75 910.667 1038.68 910.667 1043.61C910.667 1048.97 906.408 1052.54 898.783 1052.54C892.698 1052.54 886.837 1050.6 882.984 1048.36L880.327 1058.27C883.896 1060.46 891.076 1062.45 897.992 1062.45C914.866 1062.45 922.796 1053.32 922.796 1042.78C922.816 1033.34 917.36 1027.61 906.003 1023.29Z" fill="white"/>
<path d="M945.491 1032.34H970.132V1022.6H945.491V1005.77H971.613V995.941H933.545V1061.38H973.053V1051.55H945.491V1032.34Z" fill="white"/>
<path d="M1252.79 1023.29C1244.07 1019.96 1240.28 1017.58 1240.28 1012.57C1240.28 1008.71 1243.5 1004.69 1251.07 1004.69C1257.21 1004.69 1261.78 1006.56 1264.13 1007.8L1266.99 998.154C1263.58 996.428 1258.39 994.926 1251.31 994.926C1237.14 994.926 1228.17 1003.01 1228.17 1013.73C1228.17 1023.11 1235.07 1028.91 1245.88 1032.75C1254.13 1035.75 1257.46 1038.68 1257.46 1043.61C1257.46 1048.97 1253.2 1052.54 1245.57 1052.54C1239.49 1052.54 1233.63 1050.6 1229.77 1048.36L1227.12 1058.27C1230.69 1060.46 1237.87 1062.45 1244.78 1062.45C1261.66 1062.45 1269.59 1053.32 1269.59 1042.78C1269.61 1033.34 1264.15 1027.61 1252.79 1023.29Z" fill="white"/>
<path d="M264.565 844.362C264.565 814.72 283.812 796.935 311.942 796.935V746.544C311.942 731.723 302.065 721.836 288.254 721.836C274.442 721.836 264.565 731.723 264.565 746.544V844.362V844.362Z" fill="url(#paint0_linear_5373_18039)"/>
<path d="M348.469 1063.2C360.313 1063.2 371.164 1061.23 381.041 1057.76C331.189 1066.17 311.942 1032.08 311.942 993.545V835.47H369.683C383.008 835.47 391.891 827.572 391.891 816.202C391.891 804.833 383.008 796.935 369.683 796.935H311.942C283.812 796.935 264.565 814.72 264.565 844.362V980.207C264.565 1034.56 295.656 1063.2 348.469 1063.2Z" fill="url(#paint1_linear_5373_18039)"/>
<path d="M381.041 1057.76C400.775 1050.35 416.087 1036.53 425.944 1016.26L403.736 976.247C393.859 1005.89 376.599 1021.7 352.911 1021.7C328.228 1021.7 311.942 1007.37 311.942 974.765V993.545C311.942 1032.08 331.189 1066.17 381.041 1057.76Z" fill="url(#paint2_linear_5373_18039)"/>
<path d="M583.854 1049.86C471.333 1066.65 435.8 1006.4 435.8 928.841C435.8 872.522 470.339 833.987 520.191 833.987C538.444 833.987 553.757 837.946 567.568 844.362C573.977 847.326 579.412 848.321 584.341 848.321C596.185 848.321 604.075 840.423 604.075 828.566C604.075 821.156 599.633 813.746 589.269 808.812C570.509 799.432 546.334 793.991 520.171 793.991C442.189 793.991 388.403 849.316 388.403 929.836C388.403 1008.87 440.222 1063.71 523.618 1063.71C546.354 1063.69 566.088 1059.24 583.854 1049.86Z" fill="url(#paint3_linear_5373_18039)"/>
<path d="M388.443 929.816C388.443 849.295 442.229 793.971 520.211 793.971C546.374 793.971 570.549 799.412 589.31 808.792C599.673 813.725 604.115 821.136 604.115 828.546C604.115 840.403 596.226 848.301 584.381 848.301C579.453 848.301 574.018 847.306 567.609 844.342C550.836 836.444 534.55 833.967 520.231 833.967C451.599 833.987 388.443 877.455 388.443 929.816Z" fill="url(#paint4_linear_5373_18039)"/>
<path d="M683.05 809.786C678.608 814.233 676.134 819.674 676.134 826.089C676.134 842.392 691.426 866.593 726.959 891.301L767.42 919.461C797.031 940.21 808.875 959.965 808.875 989.606C808.875 1010.84 800.479 1029.14 786.667 1041.97C791.595 1037.52 794.557 1031.59 794.557 1023.69C794.557 1006.4 777.277 979.232 740.263 953.549L703.25 927.866C672.159 906.122 659.828 885.881 659.828 858.208C659.828 841.905 665.75 827.084 675.627 816.222C678.121 813.725 680.575 811.756 683.05 809.786Z" fill="url(#paint5_linear_5373_18039)"/>
<path d="M650.985 1031.59C650.985 1039.49 654.94 1045.93 665.304 1050.86C679.623 1057.78 702.804 1063.71 723.532 1063.71C749.695 1063.71 771.396 1055.81 786.708 1041.97C791.636 1037.52 794.597 1031.59 794.597 1023.69C794.597 1006.4 777.318 979.232 740.304 953.549C757.077 965.406 763.993 975.293 763.993 989.606C763.993 1010.84 747.22 1025.18 723.025 1025.18C699.823 1025.18 680.089 1013.32 669.239 1013.32C658.388 1013.32 650.985 1020.73 650.985 1031.59Z" fill="url(#paint6_linear_5373_18039)"/>
<path d="M726.98 891.301C711.18 879.932 704.285 869.557 704.285 857.213C704.285 841.398 717.123 831.531 735.376 831.531C758.578 831.531 769.428 842.393 783.24 842.393C794.091 842.393 801.493 834.982 801.493 824.12C801.493 816.223 797.538 809.787 787.175 804.853C770.889 796.955 753.122 793.991 733.875 793.991C713.634 793.991 695.868 799.92 683.05 809.807C678.609 814.253 676.134 819.694 676.134 826.11C676.134 842.393 691.447 866.593 726.98 891.301Z" fill="url(#paint7_linear_5373_18039)"/>
<path d="M435.82 928.841C435.82 1006.4 471.353 1066.68 583.874 1049.86C619.894 1031.08 645.57 993.058 663.316 934.769L673.68 900.681C663.803 887.83 659.868 873.516 659.868 858.188C659.868 841.885 665.79 827.064 675.667 816.202C660.862 832.018 648.531 855.224 638.654 887.83L627.296 925.369C607.056 991.576 574.991 1023.19 525.139 1023.19C470.359 1023.19 435.82 985.16 435.82 928.841Z" fill="url(#paint8_linear_5373_18039)"/>
<defs>
<linearGradient id="paint0_linear_5373_18039" x1="288.26" y1="734.884" x2="288.26" y2="832.697" gradientUnits="userSpaceOnUse">
<stop stop-color="#FFC708"/>
<stop offset="0.9997" stop-color="#F05731"/>
<stop offset="1" stop-color="#F05731"/>
</linearGradient>
<linearGradient id="paint1_linear_5373_18039" x1="341.969" y1="810.047" x2="316.364" y2="995.111" gradientUnits="userSpaceOnUse">
<stop stop-color="#F80000"/>
<stop offset="1" stop-color="#EE3984"/>
</linearGradient>
<linearGradient id="paint2_linear_5373_18039" x1="306.491" y1="1028.98" x2="440.295" y2="986.569" gradientUnits="userSpaceOnUse">
<stop stop-color="#EE3984"/>
<stop offset="0.9997" stop-color="#7800DA"/>
<stop offset="1" stop-color="#7800DA"/>
</linearGradient>
<linearGradient id="paint3_linear_5373_18039" x1="488.34" y1="861.399" x2="537.315" y2="1033.92" gradientUnits="userSpaceOnUse">
<stop stop-color="#FF0000"/>
<stop offset="0.9994" stop-color="#EE3984"/>
<stop offset="1" stop-color="#EE3984"/>
</linearGradient>
<linearGradient id="paint4_linear_5373_18039" x1="388.439" y1="861.898" x2="604.094" y2="861.898" gradientUnits="userSpaceOnUse">
<stop stop-color="#FFC708"/>
<stop offset="1" stop-color="#FA3B00"/>
</linearGradient>
<linearGradient id="paint5_linear_5373_18039" x1="659.858" y1="925.872" x2="808.893" y2="925.872" gradientUnits="userSpaceOnUse">
<stop stop-color="#FF0000"/>
<stop offset="1" stop-color="#EE3984"/>
</linearGradient>
<linearGradient id="paint6_linear_5373_18039" x1="780.078" y1="997.88" x2="648.855" y2="1032.58" gradientUnits="userSpaceOnUse">
<stop stop-color="#EE3984"/>
<stop offset="1" stop-color="#7800DA"/>
</linearGradient>
<linearGradient id="paint7_linear_5373_18039" x1="676.144" y1="842.632" x2="801.491" y2="842.632" gradientUnits="userSpaceOnUse">
<stop stop-color="#FFC708"/>
<stop offset="1" stop-color="#F05731"/>
</linearGradient>
<linearGradient id="paint8_linear_5373_18039" x1="511.833" y1="1003.05" x2="603.302" y2="853.761" gradientUnits="userSpaceOnUse">
<stop stop-color="#EE3984"/>
<stop offset="1" stop-color="#7800DA"/>
</linearGradient>
</defs>
</svg>
